<svg width="24" height="24" viewBox="0 0 24 24" fill="none" xmlns="http://www.w3.org/2000/svg">
  <path d="M11 2a1 1 0 1 1 2 0v2.59l1.3-1.3a1 1 0 1 1 1.4 1.42L13 7.4V11h3.6l2.69-2.7a1 1 0 0 1 1.42 1.42L19.41 11H22a1 1 0 1 1 0 2h-2.59l1.3 1.3a1 1 0 0 1-1.42 1.4L16.6 13H13v3.6l2.7 2.69a1 1 0 0 1-1.42 1.42L13 19.41V22a1 1 0 1 1-2 0v-2.59l-1.3 1.3a1 1 0 0 1-1.4-1.42L11 16.6V13H7.4l-2.69 2.7a1 1 0 0 1-1.42-1.42L4.59 13H2a1 1 0 1 1 0-2h2.59l-1.3-1.3A1 1 0 1 1 4.7 8.3L7.4 11H11V7.4L8.3 4.71A1 1 0 0 1 9.72 3.3L11 4.59V2Z" fill="#1769C2"/>
</svg>
