<svg width="24" height="24" viewBox="0 0 24 24" fill="none" xmlns="http://www.w3.org/2000/svg">
  <path d="M3 7.5a1 1 0 0 1 1-1h3.1c.9 0 1.75.4 2.32 1.1l1.16 1.4c.2.24.49.38.8.38h1.24c.31 0 .6-.14.8-.38l1.16-1.4a3 3 0 0 1 2.32-1.1H20a1 1 0 1 1 0 2h-3.1c-.3 0-.6.14-.8.38l-1.16 1.4a3 3 0 0 1-2.32 1.1h-1.24a3 3 0 0 1-2.32-1.1L7.9 8.88a1.04 1.04 0 0 0-.8-.38H4a1 1 0 0 1-1-1Zm0 8a1 1 0 0 1 1-1h3.1c.9 0 1.75.4 2.32 1.1l1.16 1.4c.2.24.49.38.8.38h1.24c.31 0 .6-.14.8-.38l1.16-1.4a3 3 0 0 1 2.32-1.1H20a1 1 0 1 1 0 2h-3.1c-.3 0-.6.14-.8.38l-1.16 1.4a3 3 0 0 1-2.32 1.1h-1.24a3 3 0 0 1-2.32-1.1l-1.16-1.4a1.04 1.04 0 0 0-.8-.38H4a1 1 0 0 1-1-1Z" fill="#0F8F66"/>
</svg>
