<svg width="24" height="24" viewBox="0 0 24 24" fill="none" xmlns="http://www.w3.org/2000/svg">
  <path fill-rule="evenodd" clip-rule="evenodd" d="M9.65 2.35A1 1 0 0 1 10.6 1.7h2.8a1 1 0 0 1 .95.65l.57 1.57c.29.13.57.29.84.48l1.65-.29a1 1 0 0 1 1.04.49l1.4 2.42a1 1 0 0 1-.09 1.15l-1.08 1.28c.03.36.03.73 0 1.1l1.08 1.28a1 1 0 0 1 .09 1.15l-1.4 2.42a1 1 0 0 1-1.04.49l-1.65-.29c-.27.19-.55.35-.84.48l-.57 1.57a1 1 0 0 1-.95.65h-2.8a1 1 0 0 1-.95-.65l-.57-1.57a7.7 7.7 0 0 1-.84-.48l-1.65.29a1 1 0 0 1-1.04-.49l-1.4-2.42a1 1 0 0 1 .09-1.15l1.08-1.28a7.15 7.15 0 0 1 0-1.1L4.24 8.17a1 1 0 0 1-.09-1.15l1.4-2.42a1 1 0 0 1 1.04-.49l1.65.29c.27-.19.55-.35.84-.48l.57-1.57Zm1.65 1.35-.47 1.3a1 1 0 0 1-.58.59c-.4.16-.77.38-1.11.64a1 1 0 0 1-.78.19L7 6.18l-.81 1.4.9 1.06a1 1 0 0 1 .22.8 5.1 5.1 0 0 0 0 1.12 1 1 0 0 1-.22.8l-.9 1.06.81 1.4 1.36-.24a1 1 0 0 1 .78.19c.34.26.71.48 1.11.64a1 1 0 0 1 .58.59l.47 1.3h1.4l.47-1.3a1 1 0 0 1 .58-.59c.4-.16.77-.38 1.11-.64a1 1 0 0 1 .78-.19l1.36.24.81-1.4-.9-1.06a1 1 0 0 1-.22-.8 5.1 5.1 0 0 0 0-1.12 1 1 0 0 1 .22-.8l.9-1.06-.81-1.4-1.36.24a1 1 0 0 1-.78-.19 5.37 5.37 0 0 0-1.11-.64 1 1 0 0 1-.58-.59l-.47-1.3h-1.4ZM12 7a3 3 0 1 1 0 6 3 3 0 0 1 0-6Zm0 2a1 1 0 1 0 0 2 1 1 0 0 0 0-2Z" fill="#000000"/>
</svg>
